<svg xmlns="http://www.w3.org/2000/svg" viewBox="0 0 771.79 557.53"><defs><style>.cls-1,.cls-10,.cls-11,.cls-2,.cls-3,.cls-5,.cls-6,.cls-7,.cls-8{fill:none;}.cls-1{stroke:#6bfffd;}.cls-1,.cls-10,.cls-11,.cls-2,.cls-3,.cls-4,.cls-5,.cls-6,.cls-7,.cls-8,.cls-9{stroke-linecap:round;stroke-linejoin:round;stroke-width:13.33px;}.cls-2{stroke:#eae9eb;}.cls-3,.cls-4{stroke:#fd83f8;}.cls-4{fill:#191b41;}.cls-10,.cls-11,.cls-4,.cls-9{fill-rule:evenodd;}.cls-11,.cls-5{stroke:#ff80f2;}.cls-10,.cls-6{stroke:#6aee40;}.cls-7{stroke:#fbdc6f;}.cls-8{stroke:#ff81f0;}.cls-9{fill:#fe7cf1;stroke:#fe7cf1;}</style></defs><title>Asset 1</title><g id="Layer_2" data-name="Layer 2"><g id="Layer_1-2" data-name="Layer 1"><g id="Layer_2-2" data-name="Layer 2"><path class="cls-1" d="M207.09,394.29s-12.47-35.26-9.28-68.93,2.38-56.21,15.64-84.58,25.19-44.81,40-61.25,33.68-32.34,37.65-36.05"/><path class="cls-1" d="M552.55,140.82s14.05,9.55,17,12.73"/><path class="cls-1" d="M622.55,219.83s33.4,63.63,25.19,119.31-21,94.92-59.66,138.67S510.4,537.58,478.85,545s-87.5,6.37-94.13,4.51"/></g><g id="Layer_4" data-name="Layer 4"><path class="cls-2" d="M219.26,426.79c5.66-6.87,15.35-17,15.35-32.32s7.27-82,7.27-93.71-1.61-24.64,10.1-41.2,28.28-51.3,28.28-61.4,8.08-12.52,16.56-11.31,18.18,1.61,18.18,23,4.84,40-1.22,50.5"/><path class="cls-2" d="M547.26,192.5c8.08-6.06,14.54-13.33,28.68-16.15s19.39-2,25,4,5.26,14.13-2.82,26.25-19.8,24.64-26.66,31.51-19.39,17.37-19.39,17.37"/><path class="cls-2" d="M549.28,275.31C561.8,279,571.5,280.16,575.54,287s4.44,14.94-2,25.44-6.87,13.33-20.2,25.45-21.81,17.37-28.68,19.79-17.37,4-20.2-3.63.81-25.45.81-25.45"/><path class="cls-2" d="M574.73,347.61s3.23,17.37-8.08,30.3-21,23-33.93,28.68-30.3,5.66-32.32-4.44,3.24-23,3.24-23"/><path class="cls-2" d="M571.5,407.8s4.84,15.76-6.06,24.64-13.33,15.76-26.66,21.41-23,16.16-35.14,8.89-7.28-29.09-7.28-29.09"/><path class="cls-2" d="M424.87,513.23s-14.14,11.31-26.66,11.31-22.62-6.46-34.74-.81a85,85,0,0,1-24.64,6.87"/></g><g id="Layer_5" data-name="Layer 5"><path class="cls-3" d="M315.4,284.6c.41,7.27-.81,184.2-.81,184.2s-2.42,7.67,6.87,14.94,35.14,6.06,65,5.66,117.15,4,120.78-1.21l10.1-5.66"/><path class="cls-3" d="M314.59,165c-.81-10.91,0-50.09,1.22-59s2.42-14.54,17-16.56,87.25-.81,101.39-1.21,50.49-.41,61.4-.41,13.33-1.61,21.81,8.49,7.67,9.69,8.48,28.68-.4,162.78,0,170.05"/></g><g id="Layer_6" data-name="Layer 6"><path class="cls-4" d="M368,446.53c-4.22,5.12-11.15,11.14-12.66,6s.61-8.43,4.22-12,12.65-6.93,8.74-.91S372.18,441.41,368,446.53Z"/></g><g id="Layer_6_copy" data-name="Layer 6 copy"><path class="cls-4" d="M368,446.53c-4.22,5.12-11.15,11.14-12.66,6s.61-8.43,4.22-12,12.65-6.93,8.74-.91S372.18,441.41,368,446.53Z"/><path class="cls-4" d="M463.75,448.94c-4.22,5.12-11.15,11.14-12.65,6s.6-8.43,4.21-12S468,436,464.05,442,468,443.82,463.75,448.94Z"/></g><g id="Layer_6_copy_copy" data-name="Layer 6 copy copy"><path class="cls-4" d="M368,446.53c-4.22,5.12-11.15,11.14-12.66,6s.61-8.43,4.22-12,12.65-6.93,8.74-.91S372.18,441.41,368,446.53Z"/><path class="cls-4" d="M463.75,448.94c-4.22,5.12-11.15,11.14-12.65,6s.6-8.43,4.21-12S468,436,464.05,442,468,443.82,463.75,448.94Z"/><path class="cls-4" d="M415.86,446.23c-4.22,5.12-11.15,11.14-12.65,6s.6-8.43,4.21-12,12.65-6.93,8.74-.91S420.07,441.11,415.86,446.23Z"/><path class="cls-5" d="M355.2,360.69v23.49h19.58l-.3,20.78,22.89.31-.3-20.49,19.58-1.2-.3-22.29-18.67.3v-22l-24.4.61.6,19.57Z"/></g><g id="Layer_7" data-name="Layer 7"><path class="cls-6" d="M451.11,352.08c.1-9.46-.49-8.55,7.93-8.93s11.26,0,11.86,8.42c.49,6.88-3.88,11.33-10,11.64S451,361.93,451.11,352.08Z"/></g><g id="Layer_8" data-name="Layer 8"><path class="cls-7" d="M460.54,383.13s10.29.32,10.29,10.18c0,6.9-4,10.92-9.65,10.71s-10.18-2.44-10.39-11.56C450.56,382.61,460.54,383.13,460.54,383.13Z"/></g><g id="Layer_10" data-name="Layer 10"><path class="cls-8" d="M355.63,261l19.56.16-.33,19.5,23,.05.4-38.55,23.91.27,1.11,24.82,23.16-.11V252.93l23.59-.2-.33-10.9,15.62.11"/></g><g id="Layer_9" data-name="Layer 9"><path class="cls-1" d="M344.57,160.63l.35,136.09s1.63,10.57,11.64,10.57c28.16,0,111.16-.62,128.76-.62,7,0,10.65-7.14,10.57-18.55-.12-17.64-.78-125.37-1.13-132.77s.35-16.93-20.1-18.69-98.71,1.06-110.35,2.12S344.57,160.63,344.57,160.63Z"/></g><g id="Layer_12" data-name="Layer 12"><path class="cls-9" d="M404.78,185.84l-.07,11.39,24.35.26V211.3l11.92.07.52-26.05Z"/></g></g><g id="Layer_2-3" data-name="Layer 2"><circle class="cls-7" cx="699.53" cy="456.91" r="27.33"/><polygon class="cls-10" points="74.2 427.37 14.66 402.23 6.67 338.1 58.2 299.11 117.74 324.25 125.74 388.38 74.2 427.37"/><polygon class="cls-10" points="710.47 179.56 695 145.58 658.24 139.06 685.77 113.85 680.61 76.87 713.1 95.27 746.67 78.94 739.22 115.52 765.13 142.4 728.03 146.62 710.47 179.56"/><polygon class="cls-11" points="136.26 75.01 171.1 49.71 170 6.67 204.83 31.98 245.43 17.63 232.12 58.58 258.31 92.76 215.25 92.75 190.84 128.22 177.54 87.27 136.26 75.01"/></g></g></svg>