<svg xmlns="http://www.w3.org/2000/svg" viewBox="0 0 701.65 703.14">
    <defs>
        <style>
            .cls-1,
            .cls-10,
            .cls-11,
            .cls-2,
            .cls-3,
            .cls-5,
            .cls-6,
            .cls-7,
            .cls-8 {
                fill: none;
            }

            .cls-1 {
                stroke: #6bfffd;
            }

            .cls-1,
            .cls-10,
            .cls-11,
            .cls-2,
            .cls-3,
            .cls-4,
            .cls-5,
            .cls-6,
            .cls-7,
            .cls-8,
            .cls-9 {
                stroke-linecap: round;
                stroke-linejoin: round;
                stroke-width: 13.33px;
            }

            .cls-2 {
                stroke: #eae9eb;
            }

            .cls-3,
            .cls-4 {
                stroke: #fd83f8;
            }

            .cls-4 {
                fill: #191b41;
            }

            .cls-10,
            .cls-11,
            .cls-4,
            .cls-9 {
                fill-rule: evenodd;
            }

            .cls-11,
            .cls-5 {
                stroke: #ff80f2;
            }

            .cls-10,
            .cls-6 {
                stroke: #6aee40;
            }

            .cls-12,
            .cls-13,
            .cls-7 {
                stroke: #fbdc6f;
            }

            .cls-8 {
                stroke: #ff81f0;
            }

            .cls-9 {
                fill: #fe7cf1;
                stroke: #fe7cf1;
            }

            .cls-12 {
                font-size: 135px;
                font-family: NeonOneRegular, Neon One;
            }

            .cls-12,
            .cls-13 {
                fill: #fbdc6f;
                stroke-miterlimit: 10;
                stroke-width: 2px;
            }
        </style>
    </defs>
    <title>Asset 5</title>
    <g id="Layer_2" data-name="Layer 2">
        <g id="Layer_1-2" data-name="Layer 1">
            <g id="Layer_2-2" data-name="Layer 2">
                <path class="cls-1"
                    d="M114.08,406.36s-12.46-35.26-9.28-68.93,2.39-56.21,15.65-84.58,25.18-44.81,40-61.25,33.67-32.34,37.65-36" />
                <path class="cls-1" d="M459.55,152.9s14.05,9.54,17,12.72" />
                <path class="cls-1"
                    d="M529.54,231.9S563,295.54,554.73,351.21s-20.94,94.92-59.65,138.67-77.69,59.77-109.24,67.2-87.49,6.36-94.12,4.5" />
            </g>
            <g id="Layer_4" data-name="Layer 4">
                <path class="cls-2"
                    d="M137.39,438.86c5.66-6.87,15.35-17,15.35-32.32s7.27-82,7.27-93.71-1.61-24.64,10.1-41.2,28.28-51.3,28.28-61.4,8.08-12.52,16.56-11.31,18.18,1.62,18.18,23,4.84,40-1.22,50.49" />
                <path class="cls-2"
                    d="M465.39,204.58c8.08-6.06,14.54-13.33,28.68-16.16s19.39-2,25,4,5.25,14.13-2.82,26.25-19.8,24.64-26.66,31.51-19.39,17.37-19.39,17.37" />
                <path class="cls-2"
                    d="M467.41,287.38c12.52,3.64,22.22,4.85,26.26,11.72s4.44,14.94-2,25.45-6.87,13.33-20.2,25.44-21.81,17.37-28.68,19.8-17.37,4-20.2-3.64.81-25.45.81-25.45" />
                <path class="cls-2"
                    d="M492.86,359.69s3.23,17.37-8.08,30.29-21,23-33.93,28.68-30.3,5.66-32.32-4.44,3.23-23,3.23-23" />
                <path class="cls-2"
                    d="M489.63,419.87s4.84,15.76-6.06,24.64-13.33,15.76-26.66,21.41-23,16.16-35.15,8.89-7.27-29.08-7.27-29.08" />
                <path class="cls-2"
                    d="M343,525.3s-14.14,11.31-26.66,11.31-22.62-6.46-34.74-.81A85,85,0,0,1,257,542.67" />
            </g>
            <g id="Layer_5" data-name="Layer 5">
                <path class="cls-3"
                    d="M225.36,296.67c.4,7.27-.81,184.2-.81,184.2s-2.42,7.67,6.87,14.94,35.14,6.06,65,5.66,117.14,4,120.78-1.21l10.1-5.66" />
                <path class="cls-3"
                    d="M224.55,177.11c-.81-10.91,0-50.09,1.21-59s2.42-14.54,17-16.56,87.25-.81,101.38-1.21,50.5-.4,61.4-.4,13.33-1.62,21.82,8.48,7.67,9.69,8.48,28.68-.41,162.78,0,170.06" />
            </g>
            <g id="Layer_6" data-name="Layer 6">
                <path class="cls-4"
                    d="M336.09,458.6c-4.22,5.12-11.15,11.15-12.66,6s.61-8.44,4.22-12.05,12.65-6.93,8.74-.91S340.3,453.48,336.09,458.6Z" />
            </g>
            <g id="Layer_6_copy" data-name="Layer 6 copy">
                <path class="cls-4"
                    d="M288.19,458.6c-4.21,5.12-11.14,11.15-12.65,6s.61-8.44,4.22-12.05,12.65-6.93,8.74-.91S292.41,453.48,288.19,458.6Z" />
                <path class="cls-4"
                    d="M384,461c-4.22,5.12-11.15,11.15-12.65,6s.6-8.44,4.21-12.05,12.65-6.93,8.74-.91S388.19,455.89,384,461Z" />
            </g>
            <g id="Layer_6_copy_copy" data-name="Layer 6 copy copy">
                <path class="cls-4"
                    d="M288.19,458.6c-4.21,5.12-11.14,11.15-12.65,6s.61-8.44,4.22-12.05,12.65-6.93,8.74-.91S292.41,453.48,288.19,458.6Z" />
                <path class="cls-4"
                    d="M384,461c-4.22,5.12-11.15,11.15-12.65,6s.6-8.44,4.21-12.05,12.65-6.93,8.74-.91S388.19,455.89,384,461Z" />
                <path class="cls-4"
                    d="M336.09,458.3c-4.22,5.12-11.15,11.14-12.66,6s.61-8.43,4.22-12,12.65-6.93,8.74-.91S340.3,453.18,336.09,458.3Z" />
                <path class="cls-5"
                    d="M275.43,372.76v23.49H295l-.3,20.79,22.89.3-.3-20.48,19.58-1.21-.3-22.29-18.68.3v-22l-24.39.61.6,19.58Z" />
            </g>
            <g id="Layer_7" data-name="Layer 7">
                <path class="cls-6"
                    d="M375.35,364.15c.1-9.46-.49-8.54,7.93-8.93s11.26,0,11.86,8.42c.49,6.88-3.87,11.34-10,11.64S375.25,374,375.35,364.15Z" />
            </g>
            <g id="Layer_8" data-name="Layer 8">
                <path class="cls-7"
                    d="M385,395.21s10.28.31,10.28,10.17c0,6.9-4,10.92-9.64,10.71s-10.18-2.44-10.39-11.56C375,394.68,385,395.21,385,395.21Z" />
            </g>
            <g id="Layer_10" data-name="Layer 10">
                <path class="cls-8"
                    d="M265.31,273l19.57.16-.34,19.5,23,.05.39-38.55,23.91.28L333,279.27l23.16-.11V265l23.6-.2-.34-10.9L395,254" />
            </g>
            <g id="Layer_9" data-name="Layer 9">
                <path class="cls-1"
                    d="M254.5,172.71l.35,136.08s1.63,10.58,11.64,10.58c28.16,0,111.16-.62,128.76-.62,7,0,10.64-7.14,10.57-18.56-.12-17.64-.78-125.37-1.14-132.77s.36-16.93-20.09-18.69-98.72,1.06-110.35,2.12S254.5,172.71,254.5,172.71Z" />
            </g>
            <g id="Layer_12" data-name="Layer 12">
                <path class="cls-9" d="M311.83,197.91l-.07,11.4,24.36.26v13.8l11.91.07.52-26.05Z" />
            </g>
        </g>
        <g id="Layer_2-3" data-name="Layer 2">
            <circle class="cls-7" cx="178.53" cy="33.99" r="27.33" />
            <circle class="cls-7" cx="33.99" cy="457.16" r="27.33" />
            <polygon id="star" class="cls-10"
                points="643.45 533.11 583.91 507.98 575.91 443.85 627.45 404.85 686.99 429.99 694.99 494.12 643.45 533.11" />
            <polygon class="cls-10"
                points="68.61 199.51 53.14 165.53 16.38 159.01 43.92 133.8 38.76 96.82 71.25 115.22 104.82 98.89 97.36 135.47 123.27 162.35 86.17 166.56 68.61 199.51" />
            <polygon class="cls-11"
                points="522.92 102.34 557.76 77.03 556.66 33.99 591.49 59.3 632.09 44.96 618.78 85.91 644.97 120.08 601.91 120.08 577.5 155.55 564.2 114.6 522.92 102.34" />
            <text class="cls-12" transform="translate(96.68 681.49)">Skanin</text>
            <ellipse class="cls-13" cx="454.77" cy="576.72" rx="5.71" ry="3.85"
                transform="translate(-275.31 496.65) rotate(-45.48)" />
            <ellipse class="cls-13" cx="468.32" cy="576.72" rx="3.85" ry="5.71"
                transform="translate(-271.26 506.31) rotate(-45.48)" />
            <ellipse class="cls-13" cx="454.77" cy="563.4" rx="3.85" ry="5.71"
                transform="translate(-265.81 492.67) rotate(-45.48)" />
            <ellipse class="cls-13" cx="468.32" cy="563.4" rx="5.71" ry="3.85"
                transform="translate(-261.76 502.33) rotate(-45.48)" />
            <ellipse class="cls-13" cx="612.84" cy="306.98" rx="14.46" ry="9.75"
                transform="translate(-72.58 309.8) rotate(-26.84)" />
            <ellipse class="cls-13" cx="646.89" cy="318.15" rx="9.75" ry="14.46"
                transform="translate(-73.96 326.38) rotate(-26.84)" />
            <ellipse class="cls-13" cx="625.15" cy="275.2" rx="9.75" ry="14.46"
                transform="translate(-56.9 311.94) rotate(-26.84)" />
            <ellipse class="cls-13" cx="658.05" cy="284.1" rx="14.46" ry="9.75"
                transform="translate(-57.38 327.75) rotate(-26.84)" />
        </g>
    </g>
</svg>